<?xml version="1.0" encoding="UTF-8"?>
<svg version="1.1" xmlns="http://www.w3.org/2000/svg" width="225" height="225">
<path d="M0 0 C74.25 0 148.5 0 225 0 C225 74.25 225 148.5 225 225 C150.75 225 76.5 225 0 225 C0 150.75 0 76.5 0 0 Z " fill="#FDFDFC" transform="translate(0,0)"/>
<path d="M0 0 C10.34622035 8.43981507 16.82856817 20.27399917 18.84765625 33.41015625 C19.11092932 38.1531219 19.08103387 42.88378986 19.04296875 47.6328125 C19.03923064 48.98758229 19.03638745 50.34235482 19.03439331 51.6971283 C19.02681957 55.23330373 19.00722629 58.76931039 18.98498535 62.30541992 C18.96439068 65.92559528 18.9553627 69.54579836 18.9453125 73.16601562 C18.92397333 80.24746416 18.8899147 87.32879909 18.84765625 94.41015625 C10.98847411 94.50349935 3.12942576 94.57424312 -4.73017406 94.61740494 C-8.38110853 94.63813746 -12.03165931 94.66618616 -15.68237305 94.71191406 C-19.2161712 94.75589235 -22.74960413 94.77940062 -26.28365517 94.78966522 C-28.26476226 94.80047806 -30.2457257 94.83161758 -32.22660828 94.86334229 C-48.84383436 94.86739005 -61.86679454 89.11372358 -73.8984375 77.81640625 C-77.45236521 74.02226506 -79.8733587 70.06280229 -82.15234375 65.41015625 C-82.63832031 64.50265625 -83.12429687 63.59515625 -83.625 62.66015625 C-86.98493433 55.47233017 -87.61151197 49.08606677 -87.65234375 41.22265625 C-87.65862793 40.30838867 -87.66491211 39.39412109 -87.67138672 38.45214844 C-87.41649553 24.71772025 -81.86238313 13.05421325 -72.46484375 3.09765625 C-51.66876558 -16.50107196 -22.50114403 -16.62062726 0 0 Z " fill="#FCF9F8" transform="translate(142.15234375,31.58984375)"/>
<path d="M0 0 C10.34622035 8.43981507 16.82856817 20.27399917 18.84765625 33.41015625 C19.11092932 38.1531219 19.08103387 42.88378986 19.04296875 47.6328125 C19.03923064 48.98758229 19.03638745 50.34235482 19.03439331 51.6971283 C19.02681957 55.23330373 19.00722629 58.76931039 18.98498535 62.30541992 C18.96439068 65.92559528 18.9553627 69.54579836 18.9453125 73.16601562 C18.92397333 80.24746416 18.8899147 87.32879909 18.84765625 94.41015625 C10.98847411 94.50349935 3.12942576 94.57424312 -4.73017406 94.61740494 C-8.38110853 94.63813746 -12.03165931 94.66618616 -15.68237305 94.71191406 C-19.2161712 94.75589235 -22.74960413 94.77940062 -26.28365517 94.78966522 C-28.26476226 94.80047806 -30.2457257 94.83161758 -32.22660828 94.86334229 C-48.84383436 94.86739005 -61.86679454 89.11372358 -73.8984375 77.81640625 C-77.45236521 74.02226506 -79.8733587 70.06280229 -82.15234375 65.41015625 C-82.63832031 64.50265625 -83.12429687 63.59515625 -83.625 62.66015625 C-86.98493433 55.47233017 -87.61151197 49.08606677 -87.65234375 41.22265625 C-87.65862793 40.30838867 -87.66491211 39.39412109 -87.67138672 38.45214844 C-87.41649553 24.71772025 -81.86238313 13.05421325 -72.46484375 3.09765625 C-51.66876558 -16.50107196 -22.50114403 -16.62062726 0 0 Z M-70.32421875 14.8984375 C-77.80824975 25.18098437 -79.13477884 36.0912984 -78.15234375 48.41015625 C-75.9517084 60.83181484 -69.47901106 71.12948433 -59.15234375 78.41015625 C-48.16808065 84.90399733 -37.34560104 87.22610831 -24.671875 84.72265625 C-13.3181095 81.52816185 -3.05566776 75.17905923 3.3515625 65.02734375 C9.80557362 52.73582406 12.02996336 40.56107706 7.890625 27.07421875 C3.11102839 14.86566111 -5.0104363 5.82396209 -16.765625 0.1484375 C-37.03917299 -7.84321005 -56.47701637 -1.15668494 -70.32421875 14.8984375 Z " fill="#B41818" transform="translate(142.15234375,31.58984375)"/>
<path d="M0 0 C3.48395095 1.89965429 6.30515535 4.29005524 8.9375 7.23828125 C9.494375 6.47515625 10.05125 5.71203125 10.625 4.92578125 C13.57149085 1.50148107 15.66719132 -0.48410982 20.26953125 -1.046875 C25.55498184 -1.22913192 29.48658668 -0.86700712 33.9375 2.23828125 C38.5805215 6.85606894 40.11725894 10.74008237 40.375 17.23828125 C40.34303899 24.37357606 38.19411685 29.55243538 33.9375 35.23828125 C32.9475 35.89828125 31.9575 36.55828125 30.9375 37.23828125 C31.1025 36.49578125 31.2675 35.75328125 31.4375 34.98828125 C32.78093526 25.91516392 32.78093526 25.91516392 30.9375 17.23828125 C30.6075 19.21828125 30.2775 21.19828125 29.9375 23.23828125 C29.6075 23.23828125 29.2775 23.23828125 28.9375 23.23828125 C28.73833984 22.08199219 28.73833984 22.08199219 28.53515625 20.90234375 C28.35855469 19.89945313 28.18195313 18.8965625 28 17.86328125 C27.82597656 16.86554688 27.65195313 15.8678125 27.47265625 14.83984375 C27.06037938 12.26918469 27.06037938 12.26918469 25.9375 10.23828125 C25.6075 11.88828125 25.2775 13.53828125 24.9375 15.23828125 C22.72350697 11.44286462 21.92769802 7.48198704 20.9375 3.23828125 C20.2775 3.23828125 19.6175 3.23828125 18.9375 3.23828125 C19.185 4.47578125 19.185 4.47578125 19.4375 5.73828125 C19.99646045 9.65100442 20.00557187 13.29011298 19.9375 17.23828125 C19.6075 17.23828125 19.2775 17.23828125 18.9375 17.23828125 C18.2775 13.60828125 17.6175 9.97828125 16.9375 6.23828125 C16.2775 6.23828125 15.6175 6.23828125 14.9375 6.23828125 C15.11215122 8.82793728 15.32555208 11.40420772 15.5625 13.98828125 C15.60761719 14.71789063 15.65273437 15.4475 15.69921875 16.19921875 C15.91540378 18.36106902 16.18239338 20.19866962 16.9375 22.23828125 C19.77899342 24.54933526 19.77899342 24.54933526 22.9375 26.23828125 C24.6171875 28.37890625 24.6171875 28.37890625 25.8125 30.48828125 C26.22242188 31.1946875 26.63234375 31.90109375 27.0546875 32.62890625 C27.34601563 33.16 27.63734375 33.69109375 27.9375 34.23828125 C23.72167661 33.63602077 23.36652856 32.66730981 19.9375 29.23828125 C20.5975 33.19828125 21.2575 37.15828125 21.9375 41.23828125 C21.2775 41.23828125 20.6175 41.23828125 19.9375 41.23828125 C19.4425 42.22828125 19.4425 42.22828125 18.9375 43.23828125 C17.6175 42.57828125 16.2975 41.91828125 14.9375 41.23828125 C14.9375 40.57828125 14.9375 39.91828125 14.9375 39.23828125 C13.9475 39.23828125 12.9575 39.23828125 11.9375 39.23828125 C11.47713371 37.88480436 11.01933463 36.53045425 10.5625 35.17578125 C10.2840625 34.35464844 10.005625 33.53351563 9.71875 32.6875 C9.0687567 30.64977099 8.54851811 28.57121601 8.0625 26.48828125 C6.55389218 22.13008089 4.08558649 19.31232449 -0.0625 17.23828125 C-0.0625 17.89828125 -0.0625 18.55828125 -0.0625 19.23828125 C0.5975 19.23828125 1.2575 19.23828125 1.9375 19.23828125 C3.87599649 23.3922023 5.16267701 27.18910653 6.125 31.67578125 C7.51655667 37.19663108 10.10477706 39.71761599 14.234375 43.46484375 C15.9375 45.23828125 15.9375 45.23828125 16.875 48.42578125 C15.49007153 52.58056666 12.62693896 54.11120675 8.9375 56.23828125 C-1.86215826 51.43843313 -12.23010678 41.86892425 -19.0625 32.23828125 C-19.47113281 31.67496094 -19.87976563 31.11164063 -20.30078125 30.53125 C-24.10149647 24.3273334 -24.15308776 17.28200221 -23.0625 10.23828125 C-21.11038228 5.96437567 -18.27454981 3.31565886 -14.8125 0.23828125 C-9.99399045 -1.51390404 -4.86194109 -1.79560324 0 0 Z " fill="#B41919" transform="translate(99.0625,48.76171875)"/>
<path d="M0 0 C2.9375 2.5 2.9375 2.5 5 5 C3.125 5.625 3.125 5.625 1 6 C0.34 5.34 -0.32 4.68 -1 4 C-4.06991681 4.16442277 -4.06991681 4.16442277 -7 5 C-8.38125018 7.76250036 -8.19079306 9.94731099 -8 13 C-6.10244856 15.34973818 -6.10244856 15.34973818 -2.875 15.125 C-1.451875 15.063125 -1.451875 15.063125 0 15 C0.33 14.34 0.66 13.68 1 13 C5.45430227 11.42789332 9.28665497 10.77008073 14 11 C13.67 10.34 13.34 9.68 13 9 C10.69 9.33 8.38 9.66 6 10 C6.66 8.68 7.32 7.36 8 6 C11.375 5.875 11.375 5.875 15 6 C15.66 6.66 16.32 7.32 17 8 C17.33 7.34 17.66 6.68 18 6 C20.06640625 5.5859375 20.06640625 5.5859375 22.5625 5.375 C23.38878906 5.30023438 24.21507812 5.22546875 25.06640625 5.1484375 C26.02353516 5.07496094 26.02353516 5.07496094 27 5 C27.495 5.99 27.495 5.99 28 7 C28.33 6.67 28.66 6.34 29 6 C34.73611111 5.72685185 34.73611111 5.72685185 37 6 C39 8 39 8 39 13 C35.7 13 32.4 13 29 13 C29.99 13.99 30.98 14.98 32 16 C35.64541845 15.76522801 35.64541845 15.76522801 39 15 C37.9375 17 37.9375 17 36 19 C32.5 19.5 32.5 19.5 29 19 C27.0625 17.375 27.0625 17.375 26 15 C25.8125 11.75 25.8125 11.75 26 9 C25.01 9.33 24.02 9.66 23 10 C22.67 12.97 22.34 15.94 22 19 C19 19 16 19 13 19 C12.030625 19.04125 11.06125 19.0825 10.0625 19.125 C7 19 7 19 4 17 C3.01 17.66 2.02 18.32 1 19 C-3.82698169 19.5449818 -5.89592369 19.71304929 -10 17.0625 C-12.33216044 13.49137933 -12.73957582 11.35488967 -12.48046875 7.16015625 C-11.01330635 0.56388952 -6.10584667 -1.09032976 0 0 Z " fill="#BC4847" transform="translate(175,132)"/>
<path d="M0 0 C9 0 9 0 12.0625 1.875 C14 4 14 4 14 6 C18.62 6 23.24 6 28 6 C26.9957244 11.02137798 26.60239038 11.86243419 23 15 C25.97 15.495 25.97 15.495 29 16 C29 16.99 29 17.98 29 19 C25.89632503 19.14515677 22.79351973 19.23400853 19.6875 19.3125 C18.80642578 19.35439453 17.92535156 19.39628906 17.01757812 19.43945312 C14.58285691 19.4857406 12.38909965 19.47666994 10 19 C7.85385019 16.55920253 7 15.24938714 7 12 C6.01 12 5.02 12 4 12 C4 14.31 4 16.62 4 19 C2.68 19 1.36 19 0 19 C0 12.73 0 6.46 0 0 Z " fill="#B43335" transform="translate(15,132)"/>
<path d="M0 0 C0 6.27 0 12.54 0 19 C-0.99 19 -1.98 19 -3 19 C-3.33 16.69 -3.66 14.38 -4 12 C-4.33 12.33 -4.66 12.66 -5 13 C-10.20177384 13.45232816 -10.20177384 13.45232816 -12.875 11.9375 C-14.64273274 8.8930714 -14.36823916 6.4368988 -14 3 C-10.71722292 -1.79790496 -5.19568272 -0.18337704 0 0 Z " fill="#AF1617" transform="translate(58,138)"/>
<path d="M0 0 C1.32 0 2.64 0 4 0 C4 6.27 4 12.54 4 19 C3.01 19 2.02 19 1 19 C1 16.36 1 13.72 1 11 C-1.97 11 -4.94 11 -8 11 C-8 13.64 -8 16.28 -8 19 C-8.99 19 -9.98 19 -11 19 C-11 13.06 -11 7.12 -11 1 C-10.01 1 -9.02 1 -8 1 C-8 3.31 -8 5.62 -8 8 C-5.36 8 -2.72 8 0 8 C0 5.36 0 2.72 0 0 Z " fill="#AA0F10" transform="translate(105,132)"/>
<path d="M0 0 C3.12522772 -0.05378021 6.2495371 -0.09356575 9.375 -0.125 C10.26445312 -0.14175781 11.15390625 -0.15851563 12.0703125 -0.17578125 C12.92109375 -0.18222656 13.771875 -0.18867188 14.6484375 -0.1953125 C15.82672119 -0.21102295 15.82672119 -0.21102295 17.02880859 -0.22705078 C19 0 19 0 21 2 C21.1953125 4.6015625 21.1953125 4.6015625 21.125 7.625 C21.10695312 8.62789062 21.08890625 9.63078125 21.0703125 10.6640625 C21.04710937 11.43492187 21.02390625 12.20578125 21 13 C20.01 13 19.02 13 18 13 C17.505 8.05 17.505 8.05 17 3 C15.68 3.33 14.36 3.66 13 4 C12.67 6.97 12.34 9.94 12 13 C11.01 13 10.02 13 9 13 C8.67 10.03 8.34 7.06 8 4 C6.68 4 5.36 4 4 4 C3.67 6.97 3.34 9.94 3 13 C2.01 13 1.02 13 0 13 C0 8.71 0 4.42 0 0 Z " fill="#AE1819" transform="translate(124,138)"/>
<path d="M0 0 C2.31 0 4.62 0 7 0 C8.32 2.31 9.64 4.62 11 7 C11.99 4.69 12.98 2.38 14 0 C15.32 0.33 16.64 0.66 18 1 C15.36 6.94 12.72 12.88 10 19 C8.68 18.67 7.36 18.34 6 18 C6.4125 17.21625 6.825 16.4325 7.25 15.625 C8.37708045 10.17744448 6.29747032 7.00037658 4 2 C3.67 5.63 3.34 9.26 3 13 C2.01 13 1.02 13 0 13 C0 8.71 0 4.42 0 0 Z " fill="#AF2020" transform="translate(59,138)"/>
<path d="M0 0 C2 1.5625 2 1.5625 3 4 C2.67272727 10.32727273 2.67272727 10.32727273 0 13 C-6.00458716 13.54587156 -6.00458716 13.54587156 -8.9375 11.9375 C-10.6140629 8.88023824 -10.36528977 6.4093712 -10 3 C-7.7810369 -1.04634448 -4.19567567 -0.52445946 0 0 Z " fill="#AD0E10" transform="translate(120,138)"/>
<path d="M0 0 C0.33 0.66 0.66 1.32 1 2 C1.33 1.67 1.66 1.34 2 1 C7.73611111 0.72685185 7.73611111 0.72685185 10 1 C12 3 12 3 12 8 C8.7 8 5.4 8 2 8 C2.99 8.99 3.98 9.98 5 11 C8.64541845 10.76522801 8.64541845 10.76522801 12 10 C10.9375 12 10.9375 12 9 14 C5.5 14.5 5.5 14.5 2 14 C0.0625 12.4375 0.0625 12.4375 -1 10 C-1.1875 6.25 -1.1875 6.25 -1 3 C-2.65 3 -4.3 3 -6 3 C-4.60722783 0.21445565 -3.01148006 0 0 0 Z " fill="#BF5354" transform="translate(202,137)"/>
<path d="M0 0 C2.9375 2.5 2.9375 2.5 5 5 C3.125 5.625 3.125 5.625 1 6 C0.34 5.34 -0.32 4.68 -1 4 C-4.06991681 4.16442277 -4.06991681 4.16442277 -7 5 C-8.38125018 7.76250036 -8.19079306 9.94731099 -8 13 C-6.1308634 15.30886319 -6.1308634 15.30886319 -3.125 15.1875 C-0.56748401 15.03404904 1.56646404 14.7487803 4 14 C3.625 15.9375 3.625 15.9375 3 18 C-0.23415916 19.61707958 -3.50375265 19.56822376 -7 19 C-10.13836313 16.97314048 -11.65870267 15.54702808 -12.4765625 11.83984375 C-12.74519692 7.60531698 -12.34576589 5.51340996 -9.9375 1.9375 C-6.21772362 -0.51596953 -4.3766411 -0.78154305 0 0 Z " fill="#AF2021" transform="translate(175,132)"/>
<path d="M0 0 C6.0546875 -0.1953125 6.0546875 -0.1953125 8 0 C10 2 10 2 10.1953125 4.6015625 C10.17210938 5.59929687 10.14890625 6.59703125 10.125 7.625 C10.10695313 8.62789062 10.08890625 9.63078125 10.0703125 10.6640625 C10.03550781 11.82035156 10.03550781 11.82035156 10 13 C8.18757948 13.02687279 6.37504767 13.04633715 4.5625 13.0625 C3.55316406 13.07410156 2.54382813 13.08570313 1.50390625 13.09765625 C-1 13 -1 13 -2 12 C-2.25 9.5625 -2.25 9.5625 -2 7 C1.22791555 4.8480563 2.28400809 4.79913557 6 5 C6 4.01 6 3.02 6 2 C4.8553125 2.495 4.8553125 2.495 3.6875 3 C1 4 1 4 -2 4 C-1.34 2.68 -0.68 1.36 0 0 Z " fill="#AF2626" transform="translate(79,138)"/>
<path d="M0 0 C1.9375 1.25 1.9375 1.25 3 3 C3 4.32 3 5.64 3 7 C-0.3 7 -3.6 7 -7 7 C-6.01 8.485 -6.01 8.485 -5 10 C-2.36 9.67 0.28 9.34 3 9 C1.9375 11 1.9375 11 0 13 C-3.44485259 13.43060657 -5.84506242 13.63335287 -8.9375 11.9375 C-10.6140629 8.88023824 -10.36528977 6.4093712 -10 3 C-7.77766882 -1.05248626 -4.20052866 -0.45005664 0 0 Z " fill="#AA1011" transform="translate(156,138)"/>
<path d="M0 0 C3.74583514 1.04050976 6.01644553 2.45648504 8.0859375 5.8046875 C10.22219774 10.9353638 11.01518453 16.55367201 12 22 C12.99 22 13.98 22 15 22 C15.33 22.99 15.66 23.98 16 25 C15.01 25.33 14.02 25.66 13 26 C6.19045395 19.82476783 4.57730413 13.86930247 3 5 C2.67 4.01 2.34 3.02 2 2 C1.34 2 0.68 2 0 2 C0 1.34 0 0.68 0 0 Z " fill="#F6ECEB" transform="translate(99,66)"/>
<path d="M0 0 C9 0 9 0 11.5625 1.125 C13.58743318 3.76621719 13.28748553 5.76578783 13 9 C12.01 9 11.02 9 10 9 C9.67 7.35 9.34 5.7 9 4 C6.03 3.505 6.03 3.505 3 3 C3 4.98 3 6.96 3 9 C2.34 9 1.68 9 1 9 C1 9.99 1 10.98 1 12 C1.66 12 2.32 12 3 12 C3 14.31 3 16.62 3 19 C2.01 19 1.02 19 0 19 C0 12.73 0 6.46 0 0 Z " fill="#AF090A" transform="translate(15,132)"/>
<path d="M0 0 C0 5.94 0 11.88 0 18 C-0.33 18 -0.66 18 -1 18 C-1.04898438 17.31292969 -1.09796875 16.62585938 -1.1484375 15.91796875 C-1.26058594 14.56638672 -1.26058594 14.56638672 -1.375 13.1875 C-1.44460937 12.29417969 -1.51421875 11.40085938 -1.5859375 10.48046875 C-1.86645036 7.75601501 -1.86645036 7.75601501 -4 5 C-4 4.34 -4 3.68 -4 3 C-5.65 3 -7.3 3 -9 3 C-9.66 4.98 -10.32 6.96 -11 9 C-11.99 9 -12.98 9 -14 9 C-14.36453202 3.5320197 -14.36453202 3.5320197 -12.84375 1.3125 C-9.17973565 -1.2957814 -4.30042403 -0.15177967 0 0 Z " fill="#A90A0A" transform="translate(58,138)"/>
<path d="M0 0 C1.32 0 2.64 0 4 0 C4 6.27 4 12.54 4 19 C3.01 19 2.02 19 1 19 C1 16.03 1 13.06 1 10 C0.34 9.67 -0.32 9.34 -1 9 C-0.67 6.03 -0.34 3.06 0 0 Z " fill="#B12628" transform="translate(105,132)"/>
<path d="M0 0 C2.625 0.375 2.625 0.375 5 1 C5.625 3.375 5.625 3.375 6 6 C4 8 4 8 1.4375 8.1875 C-1 8 -1 8 -2 7 C-2.1875 4.5625 -2.1875 4.5625 -2 2 C-1.34 1.34 -0.68 0.68 0 0 Z " fill="#F3E6E4" transform="translate(49,140)"/>
<path d="M0 0 C3 -0.3125 3 -0.3125 6 0 C8 2 8 2 8.1953125 4.6015625 C8.17210937 5.59929687 8.14890625 6.59703125 8.125 7.625 C8.10695312 8.62789062 8.08890625 9.63078125 8.0703125 10.6640625 C8.03550781 11.82035156 8.03550781 11.82035156 8 13 C7.01 13 6.02 13 5 13 C4.67 9.7 4.34 6.4 4 3 C2.02 3 0.04 3 -2 3 C-1.34 2.01 -0.68 1.02 0 0 Z " fill="#AB0A0B" transform="translate(137,138)"/>
<path d="M0 0 C2.31 0 4.62 0 7 0 C7 1.32 7 2.64 7 4 C6.34 4 5.68 4 5 4 C4.67 3.34 4.34 2.68 4 2 C3.67 5.63 3.34 9.26 3 13 C2.01 13 1.02 13 0 13 C0 8.71 0 4.42 0 0 Z " fill="#AD191A" transform="translate(59,138)"/>
<path d="M0 0 C4.62 0 9.24 0 14 0 C15.04973814 4.19895255 14.72795155 6.79405774 14 11 C11.69 11 9.38 11 7 11 C8.26953125 9.56770833 9.5390625 8.13541667 10.80859375 6.703125 C12.30988331 4.77298586 12.30988331 4.77298586 13 1 C8.71 1 4.42 1 0 1 C0 0.67 0 0.34 0 0 Z " fill="#F0DDDB" transform="translate(30,137)"/>
<path d="M0 0 C2.475 0.495 2.475 0.495 5 1 C4.34 2.32 3.68 3.64 3 5 C3.5775 4.67 4.155 4.34 4.75 4 C7 3 7 3 11 3 C11 3.99 11 4.98 11 6 C9.88625 6.2475 8.7725 6.495 7.625 6.75 C3.95384802 7.61005339 3.95384802 7.61005339 2.5625 10.125 C2.376875 10.74375 2.19125 11.3625 2 12 C0.39660152 8.88228073 -0.18974141 7.60988311 0.875 4.1875 C1.24625 3.465625 1.6175 2.74375 2 2 C1.34 1.34 0.68 0.68 0 0 Z " fill="#EFDAD8" transform="translate(74,137)"/>
<path d="M0 0 C1.32 0 2.64 0 4 0 C4 0.66 4 1.32 4 2 C4.66 2 5.32 2 6 2 C6 2.99 6 3.98 6 5 C5.34 5 4.68 5 4 5 C4 5.99 4 6.98 4 8 C2.68 8 1.36 8 0 8 C0 7.01 0 6.02 0 5 C-0.66 5 -1.32 5 -2 5 C-2 4.01 -2 3.02 -2 2 C-1.34 2 -0.68 2 0 2 C0 1.34 0 0.68 0 0 Z " fill="#F4E6E5" transform="translate(148,112)"/>
<path d="M0 0 C3.3 0 6.6 0 10 0 C9.875 2.25 9.875 2.25 9 5 C5.9375 7.3125 5.9375 7.3125 3 9 C2.34 8.67 1.68 8.34 1 8 C2.65 6.02 4.3 4.04 6 2 C4.02 2 2.04 2 0 2 C0 1.34 0 0.68 0 0 Z " fill="#AD1819" transform="translate(33,138)"/>
<path d="M0 0 C1.66621616 0.03874921 3.33394172 0.0450286 5 0 C3.9024777 2.99324263 3.32317108 3.84610901 0.375 5.25 C-0.40875 5.4975 -1.1925 5.745 -2 6 C-2.433125 5.38125 -2.86625 4.7625 -3.3125 4.125 C-4.99740483 1.7802755 -4.99740483 1.7802755 -8 0 C-4.71303767 -0.79953138 -3.28976808 -1.09658936 0 0 Z " fill="#C97474" transform="translate(184,145)"/>
<path d="M0 0 C0.66 0 1.32 0 2 0 C2 0.66 2 1.32 2 2 C3.65 2 5.3 2 7 2 C6.01 2.66 5.02 3.32 4 4 C3.42006301 6.19454681 3.42006301 6.19454681 3.3125 8.625 C3.21388672 9.85089844 3.21388672 9.85089844 3.11328125 11.1015625 C3.05720703 12.04128906 3.05720703 12.04128906 3 13 C2.01 13 1.02 13 0 13 C0 8.71 0 4.42 0 0 Z " fill="#AE1314" transform="translate(194,138)"/>
<path d="M0 0 C1.67542976 0.28604898 3.34385343 0.61781233 5 1 C5 2.65 5 4.3 5 6 C2.625 6.625 2.625 6.625 0 7 C-0.66 6.34 -1.32 5.68 -2 5 C-1.46428571 1.46428571 -1.46428571 1.46428571 0 0 Z " fill="#B4AAAB" transform="translate(48,161)"/>
<path d="M0 0 C2.97 0 5.94 0 9 0 C9 0.33 9 0.66 9 1 C6.36 1 3.72 1 1 1 C1 4.63 1 8.26 1 12 C1.66 12 2.32 12 3 12 C3 14.31 3 16.62 3 19 C2.01 19 1.02 19 0 19 C0 12.73 0 6.46 0 0 Z " fill="#AE3536" transform="translate(15,132)"/>
<path d="M0 0 C1.66611905 -0.042721 3.33382885 -0.04063832 5 0 C6 1 6 1 6.0625 3.5625 C6.041875 4.366875 6.02125 5.17125 6 6 C4.02 6.33 2.04 6.66 0 7 C0 4.69 0 2.38 0 0 Z " fill="#796669" transform="translate(92,161)"/>
<path d="M0 0 C3.375 -0.125 3.375 -0.125 7 0 C9 2 9 2 9 7 C5.7 7 2.4 7 -1 7 C-1 6.67 -1 6.34 -1 6 C1.31 6 3.62 6 6 6 C5.67 5.01 5.34 4.02 5 3 C3.35 3 1.7 3 0 3 C0 2.01 0 1.02 0 0 Z " fill="#AC0E0F" transform="translate(205,138)"/>
<path d="M0 0 C1.2065625 0.0309375 1.2065625 0.0309375 2.4375 0.0625 C2.4375 2.0425 2.4375 4.0225 2.4375 6.0625 C0.78135343 6.44468767 -0.88707024 6.77645102 -2.5625 7.0625 C-3.5625 6.0625 -3.5625 6.0625 -3.6875 3.5625 C-3.51717518 0.15600356 -3.41884482 0.08338646 0 0 Z " fill="#FAF4F3" transform="translate(116.5625,140.9375)"/>
<path d="M0 0 C1.134375 0.020625 2.26875 0.04125 3.4375 0.0625 C1.4575 1.0525 1.4575 1.0525 -0.5625 2.0625 C-0.5625 2.7225 -0.5625 3.3825 -0.5625 4.0625 C1.0875 3.7325 2.7375 3.4025 4.4375 3.0625 C3.7775 4.3825 3.1175 5.7025 2.4375 7.0625 C0.43795254 7.10504356 -1.56291636 7.10330783 -3.5625 7.0625 C-4.5625 6.0625 -4.5625 6.0625 -4.6875 3.5625 C-4.4904197 -0.37910609 -4.10054684 0.07193942 0 0 Z " fill="#AB0C0E" transform="translate(81.5625,143.9375)"/>
<path d="M0 0 C1.32 1.32 2.64 2.64 4 4 C3.67 4.66 3.34 5.32 3 6 C0.03 6 -2.94 6 -6 6 C-3.75 1.5 -3.75 1.5 0 0 Z " fill="#C96D6D" transform="translate(155,138)"/>
<path d="M0 0 C1.65 0 3.3 0 5 0 C5.38218767 1.65614657 5.71395102 3.32457024 6 5 C5 6 5 6 2.4375 6.0625 C1.2309375 6.0315625 1.2309375 6.0315625 0 6 C0 4.02 0 2.04 0 0 Z " fill="#F8F1F0" transform="translate(19,135)"/>
<path d="M0 0 C2.475 0.495 2.475 0.495 5 1 C5 2.65 5 4.3 5 6 C3.35 6.33 1.7 6.66 0 7 C0 4.69 0 2.38 0 0 Z " fill="#9E9193" transform="translate(107,161)"/>
<path d="M0 0 C0.66 0 1.32 0 2 0 C2.433125 0.969375 2.86625 1.93875 3.3125 2.9375 C4.7014861 6.27731765 4.7014861 6.27731765 8 7 C8 7.66 8 8.32 8 9 C5.25913944 9.22223194 3.56036279 9.34781139 1.1875 7.875 C-0.49106106 5.22464043 -0.20450238 3.06753576 0 0 Z " fill="#AD0B0C" transform="translate(110,142)"/>
<path d="M0 0 C0.99 0.495 0.99 0.495 2 1 C1.67 1.99 1.34 2.98 1 4 C1.66 4 2.32 4 3 4 C3 6.97 3 9.94 3 13 C2.01 13 1.02 13 0 13 C0 8.71 0 4.42 0 0 Z " fill="#AA0B0C" transform="translate(124,138)"/>
<path d="M0 0 C0.33 1.32 0.66 2.64 1 4 C-1.6875 5.625 -1.6875 5.625 -5 7 C-7.875 6.1875 -7.875 6.1875 -10 5 C-10 4.34 -10 3.68 -10 3 C-6.7 3 -3.4 3 0 3 C0 2.01 0 1.02 0 0 Z " fill="#EBD0D0" transform="translate(214,142)"/>
<path d="M0 0 C3.3 0 6.6 0 10 0 C10 0.66 10 1.32 10 2 C7.42332866 3.21676146 5.62217997 4.05184833 2.75 3.8125 C2.1725 3.544375 1.595 3.27625 1 3 C0.67 2.01 0.34 1.02 0 0 Z " fill="#EED7D4" transform="translate(149,145)"/>
<path d="M0 0 C0 1.65 0 3.3 0 5 C-3 5 -6 5 -9 5 C-7.16182974 1.32365947 -3.97378668 0 0 0 Z " fill="#AD1113" transform="translate(192,146)"/>
<path d="M0 0 C2.475 0.495 2.475 0.495 5 1 C4.67 2.98 4.34 4.96 4 7 C3.34 6.34 2.68 5.68 2 5 C1.34 5.66 0.68 6.32 0 7 C0 4.69 0 2.38 0 0 Z " fill="#8A7B7D" transform="translate(167,161)"/>
<path d="M0 0 C2.31 0 4.62 0 7 0 C7 1.32 7 2.64 7 4 C6.34 4 5.68 4 5 4 C4.67 3.34 4.34 2.68 4 2 C3.67 5.3 3.34 8.6 3 12 C2.67 12 2.34 12 2 12 C2 8.37 2 4.74 2 1 C1.34 0.67 0.68 0.34 0 0 Z " fill="#AA0406" transform="translate(59,138)"/>
<path d="M0 0 C2.4375 0.875 2.4375 0.875 3.75 2.9375 C4.0903125 3.8965625 4.0903125 3.8965625 4.4375 4.875 C0.87969804 4.26509109 -2.2453589 3.2966319 -5.5625 1.875 C-2.5625 -0.125 -2.5625 -0.125 0 0 Z " fill="#AB1112" transform="translate(175.5625,133.125)"/>
<path d="M0 0 C0.33 0 0.66 0 1 0 C1 3.3 1 6.6 1 10 C-0.32 8.35 -1.64 6.7 -3 5 C-1.125 1.125 -1.125 1.125 0 0 Z " fill="#F7EBEA" transform="translate(28,140)"/>
<path d="M0 0 C2.31 0 4.62 0 7 0 C6.67 0.99 6.34 1.98 6 3 C3.36 3.33 0.72 3.66 -2 4 C-1.34 2.68 -0.68 1.36 0 0 Z " fill="#AB0D0F" transform="translate(79,138)"/>
<path d="M0 0 C1.65 0 3.3 0 5 0 C4.01 0.33 3.02 0.66 2 1 C2 1.66 2 2.32 2 3 C2.66 3.33 3.32 3.66 4 4 C3.34 4 2.68 4 2 4 C2 4.66 2 5.32 2 6 C2.99 6.33 3.98 6.66 5 7 C3.35 7 1.7 7 0 7 C0 4.69 0 2.38 0 0 Z " fill="#948586" transform="translate(175,161)"/>
<path d="M0 0 C0.33 0 0.66 0 1 0 C1 1.65 1 3.3 1 5 C1.66 5 2.32 5 3 5 C2.34 6.32 1.68 7.64 1 9 C0.34 9 -0.32 9 -1 9 C-1 8.34 -1 7.68 -1 7 C-1.99 6.67 -2.98 6.34 -4 6 C-3.01 5.67 -2.02 5.34 -1 5 C-0.67 3.35 -0.34 1.7 0 0 Z " fill="#B64344" transform="translate(119,142)"/>
<path d="M0 0 C0 2.64 0 5.28 0 8 C-0.99 7.67 -1.98 7.34 -3 7 C-3 5.02 -3 3.04 -3 1 C-1 0 -1 0 0 0 Z " fill="#AF1011" transform="translate(166,139)"/>
<path d="M0 0 C1.98 0 3.96 0 6 0 C4.35830472 2.02054804 2.69088222 4.02043058 1 6 C0.67 6 0.34 6 0 6 C0 4.02 0 2.04 0 0 Z " fill="#FDFBF9" transform="translate(33,141)"/>
<path d="M0 0 C0.66 0.66 1.32 1.32 2 2 C2.66 1.67 3.32 1.34 4 1 C4.66 2.98 5.32 4.96 6 7 C5.01 7 4.02 7 3 7 C3 6.34 3 5.68 3 5 C2.01 5 1.02 5 0 5 C-0.33 4.01 -0.66 3.02 -1 2 C-0.67 1.34 -0.34 0.68 0 0 Z " fill="#C26969" transform="translate(111,83)"/>
<path d="M0 0 C-1.125 1.5 -1.125 1.5 -3 3 C-6.1875 3.1875 -6.1875 3.1875 -9 3 C-7.01532024 -0.96935951 -3.9567243 -1.41311582 0 0 Z " fill="#A70F11" transform="translate(214,148)"/>
<path d="M0 0 C1.65 0 3.3 0 5 0 C4.34 1.32 3.68 2.64 3 4 C1.68 3.67 0.36 3.34 -1 3 C-0.67 2.01 -0.34 1.02 0 0 Z " fill="#E6C5C5" transform="translate(81,145)"/>
<path d="M0 0 C0 0.66 0 1.32 0 2 C-6.75 3.125 -6.75 3.125 -9 2 C-8 0 -8 0 -6.1875 -0.6875 C-3.81180233 -1.02688538 -2.26664171 -0.72856341 0 0 Z " fill="#F2E2DF" transform="translate(189,141)"/>
<path d="M0 0 C1.98 0 3.96 0 6 0 C4.72485508 2.55028983 3.59658703 2.93081711 1 4 C0.01 4 -0.98 4 -2 4 C-1.34 2.68 -0.68 1.36 0 0 Z " fill="#A80809" transform="translate(183,138)"/>
<path d="M0 0 C1.32 0.33 2.64 0.66 4 1 C3.67 2.32 3.34 3.64 3 5 C2.01 5 1.02 5 0 5 C0 3.35 0 1.7 0 0 Z " fill="#F2EFEF" transform="translate(93,162)"/>
<path d="M0 0 C0.66 0.33 1.32 0.66 2 1 C1.67 2.65 1.34 4.3 1 6 C-1.31 6 -3.62 6 -6 6 C-6 5.67 -6 5.34 -6 5 C-4.02 5 -2.04 5 0 5 C-0.2784375 4.0409375 -0.2784375 4.0409375 -0.5625 3.0625 C-0.706875 2.381875 -0.85125 1.70125 -1 1 C-0.67 0.67 -0.34 0.34 0 0 Z " fill="#AF3434" transform="translate(189,138)"/>
<path d="M0 0 C2.475 0.99 2.475 0.99 5 2 C4.38125 2.28875 3.7625 2.5775 3.125 2.875 C0.86674235 3.93720042 0.86674235 3.93720042 -1 6 C-1 5.34 -1 4.68 -1 4 C-1.66 3.67 -2.32 3.34 -3 3 C-2.01 2.01 -1.02 1.02 0 0 Z " fill="#B02A2B" transform="translate(113,138)"/>
</svg>
